<svg width="8" height="8" viewBox="0 0 8 8" fill="none" xmlns="http://www.w3.org/2000/svg">
<path fill-rule="evenodd" clip-rule="evenodd" d="M6.42528 7.18198C6.71818 7.47487 7.19305 7.47487 7.48594 7.18198C7.77884 6.88909 7.77884 6.41421 7.48594 6.12132L5.36462 4L7.48594 1.87868C7.77884 1.58579 7.77884 1.11091 7.48594 0.81802C7.19305 0.525126 6.71818 0.525127 6.42528 0.81802L4.30396 2.93934L2.18264 0.81802C1.88975 0.525126 1.41488 0.525126 1.12198 0.81802C0.82909 1.11091 0.82909 1.58579 1.12198 1.87868L3.2433 4L1.12198 6.12132C0.82909 6.41421 0.82909 6.88909 1.12198 7.18198C1.41488 7.47487 1.88975 7.47487 2.18264 7.18198L4.30396 5.06066L6.42528 7.18198Z" fill="#E63946"/>
</svg>
