<svg width="23" height="25" viewBox="0 0 23 25" fill="none" xmlns="http://www.w3.org/2000/svg">
<path d="M2 19.8083V4.80836C2 3.57148 2 2.95235 2.26028 2.58639C2.48746 2.26697 2.83762 2.05726 3.22635 2.00713C3.67158 1.9497 4.21767 2.24094 5.30826 2.82258L19.3707 10.3226L19.3759 10.3248C20.5811 10.9676 21.1841 11.2892 21.3818 11.7177C21.5543 12.0916 21.5543 12.5232 21.3818 12.897C21.1838 13.3262 20.5794 13.6491 19.3707 14.2937L5.30826 21.7936C4.21688 22.3757 3.67175 22.6659 3.22635 22.6084C2.83762 22.5582 2.48746 22.3487 2.26028 22.0292C2 21.6633 2 21.0452 2 19.8083Z" stroke="#1D3557" stroke-width="2.8125" stroke-linecap="round" stroke-linejoin="round"/>
</svg>
