<svg width="31" height="31" viewBox="0 0 31 31" fill="none" xmlns="http://www.w3.org/2000/svg">
<path d="M15.7911 8.01783C15.4588 8.01783 15.1401 8.14984 14.9051 8.38482C14.6701 8.6198 14.5381 8.9385 14.5381 9.27081V15.5357C14.5382 15.8679 14.6702 16.1866 14.9052 16.4215L18.6641 20.1804C18.9004 20.4087 19.2169 20.535 19.5455 20.5321C19.874 20.5293 20.1883 20.3975 20.4206 20.1652C20.6529 19.9329 20.7846 19.6186 20.7875 19.2901C20.7904 18.9615 20.6641 18.645 20.4358 18.4087L17.044 15.0169V9.27081C17.044 8.9385 16.912 8.6198 16.677 8.38482C16.4421 8.14984 16.1234 8.01783 15.7911 8.01783ZM30.5912 13.1951C30.1611 10.4709 28.99 7.91756 27.206 5.81431C25.4221 3.71106 23.0941 2.13898 20.4766 1.27008C17.8592 0.40117 15.0531 0.268912 12.3656 0.887772C9.67797 1.50663 7.21238 2.85277 5.23853 4.7789V1.75297C5.23853 1.42066 5.10652 1.10196 4.87154 0.866987C4.63656 0.632009 4.31786 0.5 3.98556 0.5C3.65325 0.5 3.33455 0.632009 3.09957 0.866987C2.86459 1.10196 2.73258 1.42066 2.73258 1.75297V6.76486C2.73258 7.42948 2.9966 8.06688 3.46656 8.53683C3.93651 9.00679 4.57391 9.27081 5.23853 9.27081H10.2504C10.5827 9.27081 10.9014 9.1388 11.1364 8.90382C11.3714 8.66884 11.5034 8.35014 11.5034 8.01783C11.5034 7.68552 11.3714 7.36683 11.1364 7.13185C10.9014 6.89687 10.5827 6.76486 10.2504 6.76486H6.80349C8.80574 4.73208 11.4424 3.44436 14.2766 3.11507C17.1108 2.78577 19.9725 3.43467 22.3875 4.95424C24.8025 6.4738 26.6258 8.77284 27.5554 11.4704C28.485 14.168 28.4651 17.1023 27.499 19.787C26.5329 22.4717 24.6785 24.7458 22.2431 26.2325C19.8077 27.7191 16.9375 28.3292 14.108 27.9614C11.2785 27.5937 8.65961 26.2703 6.68512 24.2106C4.71064 22.1508 3.49913 19.4783 3.25131 16.6358C3.21882 16.3304 3.07328 16.0481 2.84328 15.8446C2.61329 15.641 2.31547 15.5308 2.00837 15.5357C1.83313 15.5361 1.65992 15.5731 1.49976 15.6442C1.3396 15.7153 1.196 15.819 1.07813 15.9487C0.960253 16.0783 0.870679 16.2311 0.815113 16.3973C0.759547 16.5635 0.739209 16.7395 0.755393 16.9139C0.953532 18.9105 1.54925 20.8471 2.50744 22.6099C3.46564 24.3726 4.76693 25.9257 6.33466 27.1778C7.90238 28.4298 9.70483 29.3554 11.6358 29.9001C13.5668 30.4447 15.5873 30.5974 17.5782 30.3492C19.5691 30.1009 21.4902 29.4567 23.2283 28.4544C24.9663 27.4522 26.4863 26.1123 27.6985 24.5136C28.9107 22.9149 29.7907 21.0897 30.2866 19.1456C30.7826 17.2016 30.8844 15.1779 30.5862 13.1939L30.5912 13.1951Z" fill="#1D3557"/>
</svg>
